<svg xmlns="http://www.w3.org/2000/svg" viewBox="0 0 171.79 45.67"><defs><style>.a{fill:#3c434d;}.b{fill:#005eb8;}.c{fill:#4d8ecd;}</style></defs><path class="a" d="M47.21,11.32c4.93,0,6.52,2.72,6.52,5.52a4.72,4.72,0,0,1-2.83,4.27,5,5,0,0,1,3.57,4.81c0,2.8-1.77,6-6.82,6H39.4V11.32ZM50.6,17c0-1.33-.56-2.84-3.3-2.84H42.47v5.69h4.24C49.31,19.84,50.6,18.66,50.6,17Zm.74,9.08c0-1.75-.86-3.4-4.33-3.4H42.47v6.46h5.42C50.6,29.13,51.34,27.51,51.34,26.07Z"/><path class="a" d="M67.07,30.66A5.58,5.58,0,0,1,63,32.31c-3.07,0-5.37-1.71-5.37-5s2.83-5,5.78-5a7.41,7.41,0,0,1,3.71.89v-.83c0-2.27-1-3.1-3.21-3.1a6.83,6.83,0,0,0-4.3,1.36l-.92-2.5a9.9,9.9,0,0,1,5.63-1.57c2.57,0,5.75.65,5.75,5.66V32h-3Zm0-2.68v-2.3a7.17,7.17,0,0,0-3.21-.74c-1.83,0-3.33.68-3.33,2.33,0,1.42,1,2.33,3,2.33A4.75,4.75,0,0,0,67.07,28Z"/><path class="a" d="M72.86,29.87,75,28a5,5,0,0,0,3.45,1.53c1.54,0,2.66-.41,2.66-1.62S79.7,26.18,78,25.53c-3.18-1.06-4.8-2.41-4.8-4.83,0-2.68,2.33-4.16,5.24-4.16a6.59,6.59,0,0,1,5.28,2.27l-2.21,1.77a4,4,0,0,0-3.07-1.27c-1.29,0-2.12.51-2.12,1.39s1.33,1.5,2.92,2.12c3.24,1.09,4.95,2.39,4.95,5.1,0,2.89-2.24,4.39-5.66,4.39A7.08,7.08,0,0,1,72.86,29.87Z"/><path class="a" d="M86.86,24.41c0-4.95,2.71-7.87,6.84-7.87,3.57,0,6.49,2.24,6.49,7.05a13.36,13.36,0,0,1-.12,2H89.93a3.89,3.89,0,0,0,3.8,4,3.84,3.84,0,0,0,3.12-1.53l2,2.06a6.46,6.46,0,0,1-5.16,2.18C89.51,32.31,86.86,29.37,86.86,24.41Zm10.26-1.32c-.06-2.8-1.8-3.84-3.42-3.84-1.92,0-3.63,1-3.77,3.84Z"/><path class="b" d="M102.47,29.87,104.65,28a5,5,0,0,0,3.45,1.53c1.53,0,2.65-.41,2.65-1.62s-1.44-1.74-3.13-2.39c-3.18-1.06-4.8-2.41-4.8-4.83,0-2.68,2.33-4.16,5.25-4.16a6.59,6.59,0,0,1,5.27,2.27l-2.21,1.77a4,4,0,0,0-3.06-1.27c-1.3,0-2.13.51-2.13,1.39s1.33,1.5,2.92,2.12c3.25,1.09,5,2.39,5,5.1,0,2.89-2.25,4.39-5.66,4.39A7.08,7.08,0,0,1,102.47,29.87Z"/><path class="b" d="M118.37,28.57v-9H116V16.9h2.33V12.15l3.07-1.47V16.9H125v2.65h-3.56v8.22c0,1,.29,1.71,1.47,1.71a4.22,4.22,0,0,0,2.24-.7l-.38,2.86a6.76,6.76,0,0,1-3,.67C119.34,32.31,118.37,30.84,118.37,28.57Z"/><path class="b" d="M137.14,30.66A5.6,5.6,0,0,1,133,32.31c-3.06,0-5.36-1.71-5.36-5s2.83-5,5.78-5a7.43,7.43,0,0,1,3.71.89v-.83c0-2.27-1-3.1-3.21-3.1a6.87,6.87,0,0,0-4.31,1.36l-.91-2.5a9.88,9.88,0,0,1,5.63-1.57c2.56,0,5.75.65,5.75,5.66V32h-3Zm0-2.68v-2.3a7.2,7.2,0,0,0-3.21-.74c-1.83,0-3.33.68-3.33,2.33,0,1.42,1,2.33,3,2.33A4.77,4.77,0,0,0,137.14,28Z"/><path class="b" d="M143.4,24.44c0-5,2.54-7.9,6.57-7.9,2.78,0,4.81,1.21,5.69,3.89l-2.91,1a2.8,2.8,0,0,0-2.66-2c-2.3,0-3.57,1.89-3.57,5s1.27,4.93,3.45,4.93a2.83,2.83,0,0,0,2.83-2.22l2.92.92A5.45,5.45,0,0,1,150,32.31C145.94,32.31,143.4,29.4,143.4,24.44Z"/><path class="b" d="M168.43,32,164,23.29,162,25.24V32H159V12.12L162,10.68V21.55l4.45-4.65h3.77l-4.13,4.18L171.79,32Z"/><path class="b" d="M21.57,35.91,1.13,45.59A.79.79,0,0,1,0,44.87V35.58l20.44-9.67a.79.79,0,0,1,1.13.71Z"/><path class="b" d="M21.57,21.75,1.13,31.43A.79.79,0,0,1,0,30.71V21.42l20.44-9.67a.79.79,0,0,1,1.13.71Z"/><path class="c" d="M0,10.55l8,3.62,11-5.33L1.14.08A.79.79,0,0,0,0,.79Z"/></svg>